<?xml version="1.0" encoding="UTF-8" standalone="no"?>
<svg
   xmlns:dc="http://purl.org/dc/elements/1.1/"
   xmlns:cc="http://creativecommons.org/ns#"
   xmlns:rdf="http://www.w3.org/1999/02/22-rdf-syntax-ns#"
   xmlns:svg="http://www.w3.org/2000/svg"
   xmlns="http://www.w3.org/2000/svg"
   xmlns:sodipodi="http://sodipodi.sourceforge.net/DTD/sodipodi-0.dtd"
   xmlns:inkscape="http://www.inkscape.org/namespaces/inkscape"
   width="490pt"
   height="490pt"
   version="1.1"
   viewBox="0 0 490 490"
   id="svg12"
   sodipodi:docname="1DAW-DAW.svg"
   inkscape:version="1.0.2 (e86c870879, 2021-01-15)">
  <metadata
     id="metadata18">
    <rdf:RDF>
      <cc:Work
         rdf:about="">
        <dc:format>image/svg+xml</dc:format>
        <dc:type
           rdf:resource="http://purl.org/dc/dcmitype/StillImage" />
      </cc:Work>
    </rdf:RDF>
  </metadata>
  <defs
     id="defs16" />
  <sodipodi:namedview
     pagecolor="#ffffff"
     bordercolor="#666666"
     borderopacity="1"
     objecttolerance="10"
     gridtolerance="10"
     guidetolerance="10"
     inkscape:pageopacity="0"
     inkscape:pageshadow="2"
     inkscape:window-width="1920"
     inkscape:window-height="1043"
     id="namedview14"
     showgrid="false"
     inkscape:zoom="0.73071429"
     inkscape:cx="326.66667"
     inkscape:cy="420"
     inkscape:window-x="1080"
     inkscape:window-y="900"
     inkscape:window-maximized="1"
     inkscape:current-layer="svg12" />
  <g
     id="g10"
     transform="translate(-105,-35)"
     style="fill:#d4ea6b;fill-opacity:1">
    <path
       d="m 262.5,105 35,-70 H 280 l -35,70 z"
       id="path2"
       style="fill:#d4ea6b;fill-opacity:1" />
    <path
       d="m 227.5,105 35,-70 h -140 C 112.8359,35 105,42.8359 105,52.5 V 105 Z m -35,-52.5 c 9.6641,0 17.5,7.8359 17.5,17.5 0,9.6641 -7.8359,17.5 -17.5,17.5 -9.6641,0 -17.5,-7.8359 -17.5,-17.5 0,-9.6641 7.8359,-17.5 17.5,-17.5 z m -52.5,0 c 9.6641,0 17.5,7.8359 17.5,17.5 0,9.6641 -7.8359,17.5 -17.5,17.5 -9.6641,0 -17.5,-7.8359 -17.5,-17.5 0,-9.6641 7.8359,-17.5 17.5,-17.5 z"
       id="path4"
       style="fill:#d4ea6b;fill-opacity:1" />
    <path
       d="M 595,105 V 52.5 C 595,42.8359 587.1641,35 577.5,35 H 315 l -35,70 z"
       id="path6"
       style="fill:#d4ea6b;fill-opacity:1" />
    <path
       d="m 105,122.5 v 385 c 0,9.6641 7.8359,17.5 17.5,17.5 h 455 c 9.6641,0 17.5,-7.8359 17.5,-17.5 v -385 z m 105,131.25 v -27.855 c -10.172,-3.6172 -17.5,-13.23 -17.5,-24.645 0,-14.496 11.754,-26.25 26.25,-26.25 14.496,0 26.25,11.754 26.25,26.25 0,11.414 -7.3281,21.027 -17.5,24.645 v 24.234 l 49.938,49.938 c 1.6406,1.6367 2.5625,3.8594 2.5625,6.1836 v 35 c 0,4.8359 -3.9141,8.75 -8.75,8.75 -4.8359,0 -8.75,-3.9141 -8.75,-8.75 v -31.379 l -49.938,-49.938 C 210.9219,258.2969 210,256.0742 210,253.75 Z m 84.352,220.78 c 3.707,3.0938 4.2109,8.6133 1.1211,12.332 -1.7344,2.0781 -4.2227,3.1445 -6.7344,3.1445 -1.9727,0 -3.957,-0.66797 -5.5977,-2.0234 l -52.5,-43.75 c -1.9922,-1.668 -3.1445,-4.1289 -3.1445,-6.7266 0,-2.5977 1.1523,-5.0586 3.1445,-6.7266 l 52.5,-43.75 c 3.7266,-3.0938 9.2383,-2.5898 12.332,1.1211 3.0938,3.7188 2.5898,9.2383 -1.1211,12.332 l -44.434,37.023 z M 282.563,259.94 c -1.6406,-1.6406 -2.5625,-3.8633 -2.5625,-6.1875 v -27.855 c -10.172,-3.6172 -17.5,-13.23 -17.5,-24.645 0,-14.496 11.754,-26.25 26.25,-26.25 14.496,0 26.25,11.754 26.25,26.25 0,11.414 -7.3281,21.027 -17.5,24.645 v 24.234 l 32.438,32.438 c 1.6406,1.6367 2.5625,3.8594 2.5625,6.1836 v 52.5 c 0,4.8359 -3.9141,8.75 -8.75,8.75 -4.8359,0 -8.75,-3.9141 -8.75,-8.75 v -48.879 z m 101.19,138.31 -52.5,87.5 c -1.6406,2.7344 -4.5391,4.2461 -7.5117,4.2461 -1.5312,0 -3.0859,-0.40234 -4.4961,-1.2461 -4.1445,-2.4883 -5.4844,-7.8633 -3,-12.004 l 52.5,-87.5 c 2.4961,-4.1523 7.9297,-5.4609 11.996,-3 4.1562,2.4844 5.5078,7.8594 3.0117,12.004 z m 1.25,-56.996 c 0,4.8359 -3.9141,8.75 -8.75,8.75 -4.8359,0 -8.75,-3.9141 -8.75,-8.75 v -52.5 c 0,-2.3242 0.92188,-4.5469 2.5625,-6.1875 l 32.438,-32.434 v -24.234 c -10.172,-3.6172 -17.5,-13.23 -17.5,-24.645 0,-14.496 11.754,-26.25 26.25,-26.25 14.496,0 26.25,11.754 26.25,26.25 0,11.414 -7.3281,21.027 -17.5,24.645 v 27.855 c 0,2.3242 -0.92188,4.5469 -2.5625,6.1875 l -32.438,32.438 z m 84.355,102.98 -52.5,43.75 c -1.6406,1.3594 -3.625,2.0234 -5.5977,2.0234 -2.5117,0 -5,-1.0664 -6.7344,-3.1445 -3.0938,-3.7188 -2.5898,-9.2383 1.1211,-12.332 l 44.434,-37.023 -44.434,-37.023 c -3.707,-3.0938 -4.2109,-8.6133 -1.1211,-12.332 3.0938,-3.707 8.6055,-4.2109 12.332,-1.1211 l 52.5,43.75 c 1.9922,1.6719 3.1445,4.1328 3.1445,6.7305 0,2.5977 -1.1523,5.0586 -3.1445,6.7227 z m 20.645,-218.33 v 27.855 c 0,2.3242 -0.92188,4.5469 -2.5625,6.1875 l -49.938,49.938 v 31.375 c 0,4.8359 -3.9141,8.75 -8.75,8.75 -4.8359,0 -8.75,-3.9141 -8.75,-8.75 v -35 c 0,-2.3242 0.92188,-4.5469 2.5625,-6.1875 l 49.938,-49.934 v -24.234 c -10.172,-3.6172 -17.5,-13.23 -17.5,-24.645 0,-14.496 11.754,-26.25 26.25,-26.25 14.496,0 26.25,11.754 26.25,26.25 0,11.414 -7.3281,21.027 -17.5,24.645 z"
       id="path8"
       style="fill:#d4ea6b;fill-opacity:1" />
  </g>
</svg>
